<svg id="ebay.svg" xmlns="http://www.w3.org/2000/svg" width="67.5" height="40.5" viewBox="0 0 67.5 40.5">
  <defs>
    <style>
      .cls-1 {
        fill: #f8f8f8;
      }

      .cls-2 {
        fill: #ff6c6c;
      }

      .cls-10, .cls-11, .cls-12, .cls-13, .cls-2, .cls-3, .cls-4, .cls-5, .cls-6, .cls-7, .cls-8, .cls-9 {
        fill-rule: evenodd;
      }

      .cls-3 {
        fill: #ee3b3f;
      }

      .cls-4 {
        fill: #1992dd;
      }

      .cls-5 {
        fill: #0468b2;
      }

      .cls-6 {
        fill: #ffce00;
      }

      .cls-7 {
        fill: #f7ab1b;
      }

      .cls-8 {
        fill: #85dd52;
      }

      .cls-9 {
        fill: #6bb745;
      }

      .cls-10 {
        fill: #c60c1e;
      }

      .cls-11 {
        fill: #064c91;
      }

      .cls-12 {
        fill: #f48d1c;
      }

      .cls-13 {
        fill: #4a9e19;
      }
    </style>
  </defs>
  <rect class="cls-1" width="67.5" height="40.5"/>
  <g id="Mask_Group_34" data-name="Mask Group 34">
    <g id="ebay">
      <path id="Path_153" data-name="Path 153" class="cls-2" d="M1198.34,5077.23c-5.26,0-5.47,4.14-5.4,5.19,0,0-.28,4.77,5.26,4.77,4.77,0,4.98-3.02,4.98-3.02h-2.17s-0.42,1.62-2.81,1.55a3.121,3.121,0,0,1-3.15-3.02h8.41C1203.53,5082.7,1204.16,5077.23,1198.34,5077.23Zm-3.22,4.07a2.908,2.908,0,0,1,3.15-2.67,2.738,2.738,0,0,1,3.02,2.67h-6.17Z" transform="translate(-1181.25 -5061.75)"/>
      <path id="Path_154" data-name="Path 154" class="cls-3" d="M1192.94,5081.79s-0.28,5.4,5.26,5.4c4.77,0,4.98-3.02,4.98-3.02h-2.17s-0.42,1.62-2.81,1.55a3.121,3.121,0,0,1-3.15-3.02h8.41s0.63-5.47-5.19-5.47m-3.15,4.07a2.908,2.908,0,0,1,3.15-2.67,2.738,2.738,0,0,1,3.02,2.67h-6.17Z" transform="translate(-1181.25 -5061.75)"/>
      <path id="Path_155" data-name="Path 155" class="cls-4" d="M1209.56,5077.3a4.233,4.233,0,0,0-3.64,1.54v-5.26h-2.39l0.07,11.16s0,1.47-.07,2.17h2.04l0.07-1.26s0.98,1.54,3.78,1.54A4.947,4.947,0,1,0,1209.56,5077.3Zm-0.63,8.49c-3.29.07-3.29-3.51-3.29-3.51s-0.14-3.44,3.29-3.51c3.37-.07,3.3,3.58,3.3,3.58S1212.23,5085.72,1208.93,5085.79Z" transform="translate(-1181.25 -5061.75)"/>
      <path id="Path_156" data-name="Path 156" class="cls-5" d="M1209.56,5077.3a4.233,4.233,0,0,0-3.64,1.54v-5.26l-2.39,2.18v8.98s0,1.47-.07,2.17h2.04l0.07-1.26s0.98,1.54,3.78,1.54a4.8,4.8,0,0,0,5.12-4.91A4.725,4.725,0,0,0,1209.56,5077.3Zm-0.63,8.49c-3.29.07-3.29-3.51-3.29-3.51s-0.14-3.44,3.29-3.51c3.37-.07,3.3,3.58,3.3,3.58S1212.23,5085.72,1208.93,5085.79Z" transform="translate(-1181.25 -5061.75)"/>
      <path id="Path_157" data-name="Path 157" class="cls-6" d="M1224.15,5084.66c0-1.47.07-2.73,0-3.64-0.07-1.05.07-3.72-4.49-3.93,0,0-4.34-.07-4.83,2.74h2.24s0.14-1.41,2.46-1.34c2.17,0.07,2.52,1.12,2.52,2.46,0,0-1.82.07-2.45,0.07-1.13,0-4.99.14-5.34,2.52-0.42,2.81,2.04,3.65,4,3.65a4.507,4.507,0,0,0,3.93-1.61l0.07,1.33h1.96C1224.22,5086.84,1224.15,5086.14,1224.15,5084.66Zm-5.54,1.2s-2.1,0-2.24-1.69c-0.14-1.82,3.23-1.68,3.23-1.68h2.38C1222.05,5082.49,1222.47,5085.93,1218.61,5085.86Z" transform="translate(-1181.25 -5061.75)"/>
      <path id="Path_158" data-name="Path 158" class="cls-7" d="M1215.04,5079.9h2.03s0.14-1.41,2.46-1.34c2.17,0.07,2.52,1.12,2.52,2.46,0,0-1.82.07-2.45,0.07-1.13,0-4.99.14-5.34,2.52-0.42,2.81,2.04,3.65,4,3.65a4.507,4.507,0,0,0,3.93-1.61l0.07,1.33h1.96s-0.07-.7-0.07-2.17,0.07-2.74,0-3.65c-0.07-1.05.14-3.72-4.42-3.93m-1.12,8.63s-2.1,0-2.24-1.69c-0.14-1.82,3.23-1.68,3.23-1.68h2.38C1222.05,5082.49,1222.47,5085.93,1218.61,5085.86Z" transform="translate(-1181.25 -5061.75)"/>
      <path id="Path_159" data-name="Path 159" class="cls-8" d="M1223.03,5077.79h2.46l3.57,7.16,3.58-7.16h2.25l-6.53,12.63h-2.38l1.89-3.51Z" transform="translate(-1181.25 -5061.75)"/>
      <g>
        <path id="Path_160" data-name="Path 160" class="cls-9" d="M1224.01,5079.61l1.48-1.82,3.57,7.09,3.58-7.09h2.25l-6.53,12.63h-2.38l1.89-3.58Z" transform="translate(-1181.25 -5061.75)"/>
        <path id="Path_161" data-name="Path 161" class="cls-9" d="M1235.66,5078.14v-0.28h-0.07v-0.07h0.07v-0.14h0.14v0.14h0.14v0.07h-0.14v0.28c0,0.07,0,.07.07,0.07h0.07v0.07h-0.14C1235.73,5078.35,1235.66,5078.28,1235.66,5078.14Z" transform="translate(-1181.25 -5061.75)"/>
        <path id="Path_162" data-name="Path 162" class="cls-9" d="M1236.15,5077.79h0.14v0.07a0.2,0.2,0,0,1,.21-0.07,0.35,0.35,0,0,0,.42,0,0.186,0.186,0,0,1,.21.21v0.35h-0.14v-0.28a0.14,0.14,0,0,0-.28,0v0.28h-0.14v-0.28a0.14,0.14,0,1,0-.28,0v0.28h-0.14v-0.56h0Z" transform="translate(-1181.25 -5061.75)"/>
      </g>
      <path id="Path_163" data-name="Path 163" class="cls-10" d="M1201.08,5080.18a2.79,2.79,0,0,1,.28,1.12h-6.24a2.662,2.662,0,0,1,1.4-2.25,5.736,5.736,0,0,0-3.51,1.97,5.8,5.8,0,0,0-.14,1.4s-0.28,4.77,5.26,4.77c4.07,0,4.84-2.17,4.98-2.81v-0.21h-2.17s-0.42,1.62-2.81,1.55a3.1,3.1,0,0,1-3.08-3.02h7.78A8.208,8.208,0,0,0,1201.08,5080.18Z" transform="translate(-1181.25 -5061.75)"/>
      <path id="Path_164" data-name="Path 164" class="cls-11" d="M1213.98,5084.52a5.813,5.813,0,0,0-2.38-4.34,4.237,4.237,0,0,1,.56,2.24s0.07,3.44-3.3,3.44c-3.29.07-3.29-3.51-3.29-3.51a3.539,3.539,0,0,1,1.75-3.16,5.684,5.684,0,0,0-3.86,2.39v3.3s0,1.47-.07,2.17h2.04l0.07-1.26s0.98,1.54,3.78,1.54C1211.39,5087.19,1213.21,5086.28,1213.98,5084.52Z" transform="translate(-1181.25 -5061.75)"/>
      <g>
        <path id="Path_165" data-name="Path 165" class="cls-12" d="M1224.15,5084.66v-3.08a5.766,5.766,0,0,0-2.52-2.11,2.249,2.249,0,0,1,.35,1.55s-1.82.07-2.45,0.07c-1.13,0-4.99.14-5.34,2.52-0.42,2.81,2.04,3.65,4,3.65a4.507,4.507,0,0,0,3.93-1.61l0.07,1.33h1.96A20.84,20.84,0,0,0,1224.15,5084.66Zm-5.54,1.2s-2.1,0-2.24-1.69c-0.14-1.82,3.23-1.68,3.23-1.68h2.38C1222.05,5082.49,1222.47,5085.93,1218.61,5085.86Z" transform="translate(-1181.25 -5061.75)"/>
        <path id="Path_166" data-name="Path 166" class="cls-12" d="M1216.02,5079.9h1.12a2.2,2.2,0,0,1,.49-0.78C1217,5079.26,1216.44,5079.9,1216.02,5079.9Z" transform="translate(-1181.25 -5061.75)"/>
      </g>
      <path id="Path_167" data-name="Path 167" class="cls-13" d="M1228.36,5090.42l4.56-8.84a9.353,9.353,0,0,0-1.4-1.47l-2.46,4.7-2.8-5.41a5.856,5.856,0,0,0-1.69,1.2l3.3,6.31-1.89,3.51h2.38Z" transform="translate(-1181.25 -5061.75)"/>
    </g>
  </g>
</svg>
