<svg id="money.svg" xmlns="http://www.w3.org/2000/svg" width="90" height="90" viewBox="0 0 90 90">
  <defs>
    <style>
      .cls-1 {
        fill: #004cff;
        fill-rule: evenodd;
      }
    </style>
  </defs>
  <path id="Path_83" data-name="Path 83" class="cls-1" d="M599.954,4024.97a1.75,1.75,0,1,0,.515,1.24A1.762,1.762,0,0,0,599.954,4024.97Z" transform="translate(-585 -3945)"/>
  <path id="Path_84" data-name="Path 84" class="cls-1" d="M667.533,3977.16a1.746,1.746,0,1,0,.517,1.24A1.761,1.761,0,0,0,667.533,3977.16Z" transform="translate(-585 -3945)"/>
  <path id="Path_85" data-name="Path 85" class="cls-1" d="M674.483,3945.51a1.749,1.749,0,0,0-1.243-.51H630a1.761,1.761,0,0,0-1.758,1.76v5.03l-16.661,4.46a1.757,1.757,0,0,0-1.243,2.15l8.635,32.23-7.471,7.47a5.265,5.265,0,0,0-4.352-2.3H590.274a5.281,5.281,0,0,0-5.273,5.27v28.66a5.281,5.281,0,0,0,5.273,5.27h16.875a5.284,5.284,0,0,0,5.117-4l2.09,1.82a8.892,8.892,0,0,0,5.822,2.18H673.24a1.76,1.76,0,0,0,1.758-1.76v-86.48A1.767,1.767,0,0,0,674.483,3945.51Zm-65.577,84.22a1.753,1.753,0,0,1-1.758,1.75H590.274a1.753,1.753,0,0,1-1.758-1.75v-28.66a1.759,1.759,0,0,1,1.758-1.75h6.679v20.25a1.758,1.758,0,0,0,3.516,0v-20.25h6.68a1.759,1.759,0,0,1,1.757,1.75v28.66h0Zm5.28-70.54,14.055-3.76v6.51l-1.178.32a1.755,1.755,0,0,0-1.067.81,1.776,1.776,0,0,0-.176,1.34,4.728,4.728,0,0,1-3.347,5.79,1.788,1.788,0,0,0-1.068.83,1.749,1.749,0,0,0-.174,1.33l6.852,25.37h-3.528l-1.818-7.11a1.792,1.792,0,0,0-.295-0.62ZM628.241,3970v14.83l-3.206-11.87A8.187,8.187,0,0,0,628.241,3970Zm25.254,61.48H620.178a5.333,5.333,0,0,1-3.512-1.31l-4.245-3.7v-24.32l7.674-7.67,1.392,5.45a1.767,1.767,0,0,0,1.7,1.32H657.75a2.46,2.46,0,1,1,0,4.92H640.042a1.76,1.76,0,0,0,0,3.52h23.21a2.46,2.46,0,1,1,0,4.92h-23.21a1.76,1.76,0,0,0,0,3.52H659.49a2.46,2.46,0,1,1,0,4.92H640.042a1.755,1.755,0,1,0,0,3.51H653.5A2.46,2.46,0,1,1,653.5,4031.48Zm17.987,0H658.939a5.954,5.954,0,0,0,0-4.92h0.551a88.463,88.463,0,0,1,9.738-14.41,5.942,5.942,0,0,0-1.179-3.56v-22.28a1.758,1.758,0,1,0-3.516,0v20a6.017,6.017,0,0,0-1.282-.14h-0.058a5.9,5.9,0,0,0,.533-2.46,5.99,5.99,0,0,0-5.976-5.98h-2.826a8.413,8.413,0,1,0-6.609,0h-9.609v-33.42a8.268,8.268,0,0,0,6.3-6.3H658.23a8.267,8.267,0,0,0,6.3,6.3v5.47a1.758,1.758,0,0,0,3.516,0v-7.04a1.761,1.761,0,0,0-1.758-1.76,4.736,4.736,0,0,1-4.733-4.73,1.761,1.761,0,0,0-1.758-1.76H643.439a1.76,1.76,0,0,0-1.758,1.76,4.735,4.735,0,0,1-4.732,4.73,1.76,1.76,0,0,0-1.758,1.76v34.99h-3.434v-49.21h39.725v82.96ZM651.62,3994.9a4.9,4.9,0,1,1,4.9-4.9A4.905,4.905,0,0,1,651.62,3994.9Z" transform="translate(-585 -3945)"/>
</svg>
