<svg id="support.svg" xmlns="http://www.w3.org/2000/svg" width="80.877" height="90" viewBox="0 0 80.877 90">
  <defs>
    <style>
      .cls-1, .cls-2 {
        fill: #004cff;
      }

      .cls-2 {
        fill-rule: evenodd;
      }
    </style>
  </defs>
  <circle id="Path_86" data-name="Path 86" class="cls-1" cx="59.762" cy="71.36" r="1.765"/>
  <path id="Path_87" data-name="Path 87" class="cls-2" d="M1013.66,4008.93l-8.35-2.79-3-6a19.252,19.252,0,0,0,5.21-10.18l0.37-2.25h3.2a5.279,5.279,0,0,0,5.28-5.27v-11.07a26.369,26.369,0,1,0-52.738,0v11.07a5.277,5.277,0,0,0,3.516,4.97v2.06a5.283,5.283,0,0,0,5.273,5.28h1.544a19.175,19.175,0,0,0,2.949,4.56c0.248,0.29.509,0.57,0.774,0.83l-3,6-8.354,2.79c-9.715,3.23-16.766,13.46-16.766,24.31a1.76,1.76,0,0,0,1.758,1.76h77.342a1.763,1.763,0,0,0,1.76-1.76C1030.43,4022.39,1023.38,4012.16,1013.66,4008.93Zm-0.81-26.49a1.763,1.763,0,0,1-1.76,1.76h-2.68c0.45-3.46.74-7.15,0.87-10.77v-0.31h3.57v9.32Zm-43.944,1.76a1.761,1.761,0,0,1-1.758-1.76v-9.32h3.568c0.006,0.19.012,0.37,0.018,0.56,0,0,0,.01,0,0.02h0c0.124,3.53.418,7.11,0.854,10.5h-2.683Zm3.515,7.03a1.762,1.762,0,0,1-1.758-1.76v-1.76h1.442l0.374,2.25c0.071,0.42.158,0.85,0.26,1.27h-0.318Zm-1.754-21.62h-3.452a22.85,22.85,0,0,1,45.565,0h-3.45a17.8,17.8,0,0,0-17.757-17.58h-3.147A17.8,17.8,0,0,0,970.667,3969.61Zm17.759-14.06h3.147a14.294,14.294,0,0,1,14.247,14.31c0,0.55-.01,1.03-0.01,1.47v0.02l-2.2-.32a28.208,28.208,0,0,1-15.883-7.94,1.753,1.753,0,0,0-1.244-.51,15.913,15.913,0,0,0-12.227,5.78A14.283,14.283,0,0,1,988.426,3955.55Zm-12.043,35.68c-0.88-2.93-1.886-11.54-2.109-17.06l2.366-3.15a12.38,12.38,0,0,1,9.149-4.91,31.721,31.721,0,0,0,17.321,8.4l2.59,0.37a106.45,106.45,0,0,1-1.04,10.75h0c-0.16,1.09-.28,1.79-0.61,3.75-0.93,5.58-5.095,10.63-10.595,12.01a13.832,13.832,0,0,1-15.526-6.64h3.584a5.284,5.284,0,0,0,4.97,3.51H990a5.275,5.275,0,0,0,0-10.55h-3.516a5.283,5.283,0,0,0-4.973,3.52h-5.127Zm9.953,13.71a17.372,17.372,0,0,0,6.538.15l-3.106,3.29Zm1.015,5.99-5.575,5.9a67.171,67.171,0,0,1-3.936-9.13l2.094-4.19Zm12.416-8.01,2.393,4.78a67.228,67.228,0,0,1-3.938,9.13l-5.967-5.97Zm-15.042-9.93a1.761,1.761,0,0,1,1.758-1.76H990a1.76,1.76,0,0,1,0,3.52h-3.516A1.762,1.762,0,0,1,984.725,3992.99Zm-31.569,38.49c0.7-8.7,6.491-16.62,14.291-19.22l7.4-2.47a70.411,70.411,0,0,0,5,10.86,0.094,0.094,0,0,0,.01.01v0.01a70.639,70.639,0,0,0,4.811,7.34l2.163,3.47H953.156ZM990,4029.92l-2.384-3.83c-0.026-.04-0.054-0.08-0.085-0.13a66.031,66.031,0,0,1-3.961-5.91l6.269-6.63,6.606,6.6a65.286,65.286,0,0,1-3.975,5.94C992.383,4026.08,992.505,4025.9,990,4029.92Zm3.166,1.56,2.162-3.47a69.092,69.092,0,0,0,4.843-7.4c0.01-.02.02-0.03,0.03-0.05v-0.01a68.937,68.937,0,0,0,4.95-10.76l7.4,2.47c7.8,2.6,13.6,10.52,14.29,19.22H993.165Z" transform="translate(-949.563 -3945)"/>
  <path id="Path_88" data-name="Path 88" class="cls-2" d="M1021.56,4024.37a17.544,17.544,0,0,0-4.98-6.04,1.758,1.758,0,0,0-2.14,2.79,13.98,13.98,0,0,1,3.98,4.82A1.755,1.755,0,1,0,1021.56,4024.37Z" transform="translate(-949.563 -3945)"/>
</svg>
