<svg id="visa.svg" xmlns="http://www.w3.org/2000/svg" width="67.5" height="40.5" viewBox="0 0 67.5 40.5">
  <defs>
    <style>
      .cls-1 {
        fill: #f8f8f8;
      }

      .cls-2 {
        fill: #3c58bf;
      }

      .cls-2, .cls-3, .cls-4, .cls-5, .cls-6, .cls-7 {
        fill-rule: evenodd;
      }

      .cls-3 {
        fill: #293688;
      }

      .cls-4 {
        fill: #ffbc00;
      }

      .cls-5 {
        fill: #f7981d;
      }

      .cls-6 {
        fill: #ed7c00;
      }

      .cls-7 {
        fill: #051244;
      }
    </style>
  </defs>
  <rect class="cls-1" width="67.5" height="40.5"/>
  <g id="Mask_Group_32" data-name="Mask Group 32">
    <g id="visa">
      <path id="Path_112" data-name="Path 112" class="cls-2" d="M1029.1,5088.36l2.25-12.65h3.51l-2.18,12.65h-3.58Z" transform="translate(-1001.25 -5061.75)"/>
      <path id="Path_113" data-name="Path 113" class="cls-3" d="M1029.1,5088.36l2.88-12.65h2.88l-2.18,12.65h-3.58Z" transform="translate(-1001.25 -5061.75)"/>
      <path id="Path_114" data-name="Path 114" class="cls-2" d="M1045.4,5075.85a8.984,8.984,0,0,0-3.23-.56c-3.52,0-6.05,1.76-6.05,4.29,0,1.89,1.76,2.88,3.16,3.51s1.83,1.05,1.83,1.61c0,0.85-1.12,1.27-2.11,1.27a7.682,7.682,0,0,1-3.37-.7l-0.49-.21-0.49,2.88a11.413,11.413,0,0,0,4,.7c3.73,0,6.19-1.76,6.19-4.43,0-1.47-.92-2.6-3.03-3.51-1.26-.63-2.03-0.98-2.03-1.62,0-.56.63-1.12,2.03-1.12a6.438,6.438,0,0,1,2.67.49l0.36,0.14,0.56-2.74h0Z" transform="translate(-1001.25 -5061.75)"/>
      <path id="Path_115" data-name="Path 115" class="cls-3" d="M1045.4,5075.85a8.984,8.984,0,0,0-3.23-.56c-3.52,0-5.41,1.76-5.41,4.29a3.672,3.672,0,0,0,2.52,3.51c1.41,0.63,1.83,1.05,1.83,1.61,0,0.85-1.12,1.27-2.11,1.27a7.682,7.682,0,0,1-3.37-.7l-0.49-.21-0.49,2.88a11.413,11.413,0,0,0,4,.7c3.73,0,6.19-1.76,6.19-4.43,0-1.47-.92-2.6-3.03-3.51-1.26-.63-2.03-0.98-2.03-1.62,0-.56.63-1.12,2.03-1.12a6.438,6.438,0,0,1,2.67.49l0.36,0.14,0.56-2.74h0Z" transform="translate(-1001.25 -5061.75)"/>
      <path id="Path_116" data-name="Path 116" class="cls-2" d="M1051.44,5075.71a1.611,1.611,0,0,0-1.83.92l-5.27,11.73h3.8l0.7-2.11h4.5l0.42,2.11h3.37l-2.95-12.65h-2.74Zm-1.62,8.43c0.21-.63,1.41-3.72,1.41-3.72s0.28-.77.49-1.27l0.21,1.2s0.7,3.16.84,3.86h-2.95v-0.07Z" transform="translate(-1001.25 -5061.75)"/>
      <path id="Path_117" data-name="Path 117" class="cls-3" d="M1052.28,5075.71a1.6,1.6,0,0,0-1.82.92l-6.12,11.73h3.8l0.7-2.11h4.5l0.42,2.11h3.37l-2.95-12.65h-1.9Zm-2.46,8.43c0.28-.7,1.41-3.72,1.41-3.72s0.28-.77.49-1.27l0.21,1.2s0.7,3.16.84,3.86h-2.95v-0.07Z" transform="translate(-1001.25 -5061.75)"/>
      <path id="Path_118" data-name="Path 118" class="cls-2" d="M1022.63,5084.56l-0.35-1.82a10.17,10.17,0,0,0-4.91-5.55l3.16,11.24h3.79l5.69-12.65h-3.79Z" transform="translate(-1001.25 -5061.75)"/>
      <path id="Path_119" data-name="Path 119" class="cls-3" d="M1022.63,5084.56l-0.35-1.82a10.17,10.17,0,0,0-4.91-5.55l3.16,11.24h3.79l5.69-12.65h-3.09Z" transform="translate(-1001.25 -5061.75)"/>
      <path id="Path_120" data-name="Path 120" class="cls-4" d="M1012.87,5075.71l0.63,0.14c4.5,1.06,7.59,3.73,8.78,6.89l-1.26-5.97a1.413,1.413,0,0,0-1.62-1.06h-6.53Z" transform="translate(-1001.25 -5061.75)"/>
      <path id="Path_121" data-name="Path 121" class="cls-5" d="M1012.87,5075.71h0c4.5,1.06,8.22,3.8,9.41,6.96l-1.19-4.99a1.721,1.721,0,0,0-1.69-1.34Z" transform="translate(-1001.25 -5061.75)"/>
      <path id="Path_122" data-name="Path 122" class="cls-6" d="M1012.87,5075.71h0c4.5,1.06,8.22,3.8,9.41,6.96l-0.84-2.74a2.462,2.462,0,0,0-1.48-2.04Z" transform="translate(-1001.25 -5061.75)"/>
      <g>
        <path id="Path_123" data-name="Path 123" class="cls-7" d="M1026.15,5084.14l-2.39-2.39-1.13,2.67-0.28-1.75a10.17,10.17,0,0,0-4.91-5.55l3.16,11.24h3.79Z" transform="translate(-1001.25 -5061.75)"/>
        <path id="Path_124" data-name="Path 124" class="cls-7" d="M1032.68,5088.36l-3.02-3.09-0.56,3.09h3.58Z" transform="translate(-1001.25 -5061.75)"/>
        <path id="Path_125" data-name="Path 125" class="cls-7" d="M1040.76,5084h0a0.8,0.8,0,0,1,.35.77c0,0.85-1.12,1.27-2.11,1.27a7.682,7.682,0,0,1-3.37-.7l-0.49-.21-0.49,2.88a11.413,11.413,0,0,0,4,.7,6.927,6.927,0,0,0,5.13-1.76Z" transform="translate(-1001.25 -5061.75)"/>
        <path id="Path_126" data-name="Path 126" class="cls-7" d="M1044.84,5088.36h3.3l0.7-2.11h4.5l0.42,2.11h3.37l-1.19-5.13-4.22-4.08,0.21,1.13s0.7,3.16.84,3.86h-2.95c0.28-.7,1.41-3.72,1.41-3.72s0.28-.77.49-1.27" transform="translate(-1001.25 -5061.75)"/>
      </g>
    </g>
  </g>
</svg>
